<svg fill="#8e44ad" xmlns="http://www.w3.org/2000/svg" viewBox="0 0 466.084 466.084" enable-background="new 0 0 466.084 466.084"><path d="M297.876 167.351h-3.069c-28.109 0-50.978 22.868-50.978 50.977 0 41.977 34.15 76.128 76.128 76.128 17.887 0 32.439-14.552 32.439-32.439v-40.144c.001-30.064-24.457-54.522-54.52-54.522zm34.521 94.665c0 6.859-5.58 12.439-12.439 12.439-30.949 0-56.128-25.179-56.128-56.128 0-17.081 13.896-30.977 30.978-30.977h3.069c19.035 0 34.521 15.486 34.521 34.521v40.145zM171.227 167.351h-3.069c-30.063 0-54.521 24.458-54.521 54.521v40.144c0 17.887 14.553 32.439 32.439 32.439 41.978 0 76.128-34.151 76.128-76.128-.001-28.108-22.869-50.976-50.977-50.976zm-25.152 107.104c-6.859 0-12.439-5.58-12.439-12.439v-40.144c0-19.035 15.486-34.521 34.521-34.521h3.069c17.08 0 30.977 13.896 30.977 30.977 0 30.949-25.178 56.127-56.128 56.127zM220.148 272.562c-5.473-.684-10.478 3.202-11.163 8.683l-5.021 40.164c-.685 5.48 3.202 10.478 8.683 11.163.421.052.839.078 1.253.078 4.97 0 9.277-3.701 9.91-8.761l5.021-40.164c.684-5.48-3.203-10.478-8.683-11.163zM257.048 281.244c-.686-5.48-5.68-9.367-11.163-8.683-5.48.685-9.367 5.683-8.683 11.163l5.021 40.164c.633 5.06 4.94 8.761 9.91 8.761.413 0 .832-.026 1.253-.078 5.48-.685 9.367-5.683 8.683-11.163l-5.021-40.164zM240.089 117.371c1.86-1.86 2.931-4.44 2.931-7.07s-1.07-5.21-2.931-7.07c-1.859-1.86-4.439-2.93-7.069-2.93-2.641 0-5.21 1.07-7.07 2.93-1.87 1.86-2.93 4.44-2.93 7.07s1.06 5.21 2.93 7.07c1.86 1.86 4.43 2.93 7.07 2.93 2.63 0 5.21-1.07 7.069-2.93zM379.254 323.754c9.214-10.712 15.016-24.412 15.586-39.292.311-8.146-.881-16.137-3.541-23.75-6.577-18.825-7.41-38.555-2.409-57.059 4.086-15.115 5.943-30.799 5.52-46.617-1.121-41.909-18.35-81.259-48.513-110.801-30.157-29.534-69.856-45.953-111.785-46.231-43.361-.283-84.14 16.37-114.878 46.904-30.74 30.537-47.67 71.217-47.67 114.545 0 14.645 1.965 29.164 5.841 43.157 4.896 17.681 3.973 37.083-2.672 56.107-2.66 7.614-3.851 15.604-3.539 23.747.57 14.88 6.372 28.58 15.587 39.292-35.427 39.893-34.042 101.19 4.168 139.4 1.876 1.875 4.42 2.929 7.072 2.929 2.651 0 5.195-1.053 7.071-2.929 31.848-31.848 38.11-79.734 18.802-117.897 2.621.486 5.289.826 8.005.976 7.618.42 15.126-.481 22.266-2.639v18.208c0 3.973 2.352 7.569 5.992 9.162 22.812 9.98 47.836 14.97 72.86 14.97s50.049-4.99 72.86-14.97c3.641-1.593 5.992-5.189 5.992-9.162v-18.207c7.139 2.157 14.647 3.059 22.266 2.638 2.696-.149 5.344-.485 7.946-.966-7.145 14.073-10.929 29.731-10.929 45.971 0 27.167 10.579 52.707 29.789 71.916 1.953 1.953 4.512 2.929 7.071 2.929s5.118-.976 7.071-2.929c19.21-19.209 29.789-44.75 29.789-71.916.001-25.13-9.057-48.863-25.618-67.486zm-281.234 117.202c-22.431-29.212-22.43-70.223.001-99.434 22.43 29.212 22.429 70.223-.001 99.434zm235.011-114.692c-9.201.509-18.144-1.765-25.888-6.573-3.085-1.916-6.964-2.008-10.135-.244-3.173 1.764-5.14 5.109-5.14 8.739v26.926c-3.68 1.427-7.418 2.708-11.199 3.854v-9.243c0-5.523-4.478-10-10-10s-10 4.477-10 10v13.925c-5.839.984-11.735 1.653-17.653 2.007v-11.603c0-5.523-4.478-10-10-10s-10 4.477-10 10v11.603c-5.918-.354-11.815-1.024-17.654-2.007v-13.925c0-5.523-4.478-10-10-10s-10 4.477-10 10v9.243c-3.781-1.146-7.519-2.426-11.198-3.853v-26.925c0-3.63-1.967-6.975-5.139-8.739s-7.052-1.672-10.136.243c-7.745 4.808-16.705 7.084-25.888 6.573-22.586-1.247-40.957-19.944-41.823-42.567-.216-5.631.604-11.143 2.435-16.385 7.995-22.889 9.055-46.417 3.064-68.041-3.394-12.254-5.114-24.978-5.114-37.818 0-37.961 14.832-73.601 41.766-100.355 26.93-26.752 62.694-41.349 100.649-41.094 36.716.244 71.493 14.635 97.924 40.521 26.434 25.89 41.532 60.355 42.515 97.047.371 13.875-1.255 27.623-4.834 40.862-6.058 22.412-5.077 46.228 2.835 68.875v.001c1.832 5.24 2.651 10.754 2.436 16.388-.866 22.62-19.237 41.318-41.823 42.565zm34.982 114.705c-10.936-14.2-16.86-31.51-16.86-49.73s5.925-35.53 16.86-49.73c10.936 14.2 16.86 31.51 16.86 49.73s-5.925 35.53-16.86 49.73zM243.019 179.947v-27.32c4.607-1.089 8.934-2.906 12.849-5.333l8.283 8.277c1.952 1.951 4.51 2.927 7.068 2.927 2.561 0 5.121-.977 7.073-2.931 3.904-3.906 3.902-10.238-.005-14.142l-8.278-8.272c2.427-3.915 4.244-8.242 5.332-12.849h27.323c5.522 0 10-4.477 10-10s-4.478-10-10-10h-27.323c-1.089-4.608-2.906-8.936-5.334-12.851l8.277-8.278c3.905-3.905 3.905-10.237 0-14.142-3.906-3.905-10.236-3.905-14.143 0l-8.278 8.278c-3.914-2.426-8.24-4.243-12.846-5.331v-27.32c0-5.523-4.478-10-10-10s-10 4.477-10 10v27.32c-4.609 1.089-8.937 2.906-12.853 5.334l-8.275-8.275c-3.905-3.905-10.235-3.905-14.143 0-3.905 3.905-3.905 10.237 0 14.142l8.276 8.276c-2.427 3.915-4.244 8.241-5.332 12.848h-27.318c-5.522 0-10 4.477-10 10s4.478 10 10 10h27.318c1.089 4.608 2.906 8.936 5.334 12.851l-8.274 8.281c-3.904 3.907-3.902 10.238.005 14.142 1.952 1.951 4.51 2.926 7.068 2.926 2.561 0 5.121-.978 7.073-2.932l8.27-8.276c3.916 2.427 8.243 4.245 12.851 5.333v27.32c0 5.523 4.478 10 10 10s10.002-4.48 10.002-10.003zm-33.5-69.645c0-12.957 10.541-23.498 23.498-23.498s23.498 10.541 23.498 23.498-10.541 23.498-23.498 23.498-23.498-10.541-23.498-23.498z"/></svg>
